<mxfile host="app.diagrams.net" modified="2024-03-10T17:22:55.113Z" agent="Mozilla/5.0 (Windows NT 10.0; Win64; x64) AppleWebKit/537.36 (KHTML, like Gecko) Chrome/122.0.0.0 Safari/537.36 Edg/122.0.0.0" etag="NbuOEFGAkKSUXpGAulLO" version="24.0.4" type="github">
  <diagram id="R2lEEEUBdFMjLlhIrx00" name="Page-1">
    <mxGraphModel dx="996" dy="1673" grid="1" gridSize="10" guides="1" tooltips="1" connect="1" arrows="1" fold="1" page="1" pageScale="1" pageWidth="850" pageHeight="1100" math="0" shadow="0" extFonts="Permanent Marker^https://fonts.googleapis.com/css?family=Permanent+Marker">
      <root>
        <mxCell id="0" />
        <mxCell id="1" parent="0" />
        <mxCell id="8dqYxIWpOryAG6sLCwDa-50" value="" style="edgeStyle=orthogonalEdgeStyle;rounded=0;orthogonalLoop=1;jettySize=auto;html=1;endArrow=none;endFill=0;" edge="1" parent="1" source="8dqYxIWpOryAG6sLCwDa-1" target="8dqYxIWpOryAG6sLCwDa-20">
          <mxGeometry relative="1" as="geometry" />
        </mxCell>
        <mxCell id="8dqYxIWpOryAG6sLCwDa-1" value="First_name" style="ellipse;whiteSpace=wrap;html=1;aspect=fixed;" vertex="1" parent="1">
          <mxGeometry x="280" y="-70" width="80" height="80" as="geometry" />
        </mxCell>
        <mxCell id="8dqYxIWpOryAG6sLCwDa-4" value="Last_name" style="ellipse;whiteSpace=wrap;html=1;aspect=fixed;" vertex="1" parent="1">
          <mxGeometry x="360" width="80" height="80" as="geometry" />
        </mxCell>
        <mxCell id="8dqYxIWpOryAG6sLCwDa-11" value="&lt;u&gt;email_address&lt;/u&gt;" style="ellipse;whiteSpace=wrap;html=1;aspect=fixed;" vertex="1" parent="1">
          <mxGeometry x="190" width="80" height="80" as="geometry" />
        </mxCell>
        <mxCell id="8dqYxIWpOryAG6sLCwDa-34" style="edgeStyle=orthogonalEdgeStyle;rounded=0;orthogonalLoop=1;jettySize=auto;html=1;entryX=0.5;entryY=0;entryDx=0;entryDy=0;endArrow=none;endFill=0;" edge="1" parent="1" source="8dqYxIWpOryAG6sLCwDa-20" target="8dqYxIWpOryAG6sLCwDa-33">
          <mxGeometry relative="1" as="geometry" />
        </mxCell>
        <mxCell id="8dqYxIWpOryAG6sLCwDa-46" style="edgeStyle=orthogonalEdgeStyle;rounded=0;orthogonalLoop=1;jettySize=auto;html=1;exitX=0.75;exitY=0;exitDx=0;exitDy=0;entryX=0;entryY=0.5;entryDx=0;entryDy=0;endArrow=none;endFill=0;" edge="1" parent="1" source="8dqYxIWpOryAG6sLCwDa-20" target="8dqYxIWpOryAG6sLCwDa-4">
          <mxGeometry relative="1" as="geometry" />
        </mxCell>
        <mxCell id="8dqYxIWpOryAG6sLCwDa-20" value="Authors" style="rounded=0;whiteSpace=wrap;html=1;" vertex="1" parent="1">
          <mxGeometry x="260" y="120" width="120" height="60" as="geometry" />
        </mxCell>
        <mxCell id="8dqYxIWpOryAG6sLCwDa-49" value="" style="edgeStyle=orthogonalEdgeStyle;rounded=0;orthogonalLoop=1;jettySize=auto;html=1;endArrow=none;endFill=0;" edge="1" parent="1" source="8dqYxIWpOryAG6sLCwDa-21" target="8dqYxIWpOryAG6sLCwDa-33">
          <mxGeometry relative="1" as="geometry" />
        </mxCell>
        <mxCell id="8dqYxIWpOryAG6sLCwDa-78" style="edgeStyle=orthogonalEdgeStyle;rounded=0;orthogonalLoop=1;jettySize=auto;html=1;entryX=1;entryY=0.5;entryDx=0;entryDy=0;endArrow=none;endFill=0;" edge="1" parent="1" source="8dqYxIWpOryAG6sLCwDa-21" target="8dqYxIWpOryAG6sLCwDa-74">
          <mxGeometry relative="1" as="geometry" />
        </mxCell>
        <mxCell id="8dqYxIWpOryAG6sLCwDa-21" value="Articles" style="rounded=0;whiteSpace=wrap;html=1;" vertex="1" parent="1">
          <mxGeometry x="590" y="150" width="120" height="60" as="geometry" />
        </mxCell>
        <mxCell id="8dqYxIWpOryAG6sLCwDa-23" style="edgeStyle=orthogonalEdgeStyle;rounded=0;orthogonalLoop=1;jettySize=auto;html=1;entryX=0.25;entryY=0;entryDx=0;entryDy=0;endArrow=none;endFill=0;" edge="1" parent="1" source="8dqYxIWpOryAG6sLCwDa-22" target="8dqYxIWpOryAG6sLCwDa-21">
          <mxGeometry relative="1" as="geometry" />
        </mxCell>
        <mxCell id="8dqYxIWpOryAG6sLCwDa-22" value="&lt;u&gt;Article_id&lt;/u&gt;" style="ellipse;whiteSpace=wrap;html=1;aspect=fixed;" vertex="1" parent="1">
          <mxGeometry x="510" y="30" width="80" height="80" as="geometry" />
        </mxCell>
        <mxCell id="8dqYxIWpOryAG6sLCwDa-27" value="Title" style="ellipse;whiteSpace=wrap;html=1;aspect=fixed;" vertex="1" parent="1">
          <mxGeometry x="610" width="80" height="80" as="geometry" />
        </mxCell>
        <mxCell id="8dqYxIWpOryAG6sLCwDa-28" style="edgeStyle=orthogonalEdgeStyle;rounded=0;orthogonalLoop=1;jettySize=auto;html=1;entryX=0.45;entryY=0.037;entryDx=0;entryDy=0;entryPerimeter=0;endArrow=none;endFill=0;" edge="1" parent="1" source="8dqYxIWpOryAG6sLCwDa-27" target="8dqYxIWpOryAG6sLCwDa-21">
          <mxGeometry relative="1" as="geometry" />
        </mxCell>
        <mxCell id="8dqYxIWpOryAG6sLCwDa-30" style="edgeStyle=orthogonalEdgeStyle;rounded=0;orthogonalLoop=1;jettySize=auto;html=1;entryX=0.75;entryY=0;entryDx=0;entryDy=0;endArrow=none;endFill=0;" edge="1" parent="1" source="8dqYxIWpOryAG6sLCwDa-29" target="8dqYxIWpOryAG6sLCwDa-21">
          <mxGeometry relative="1" as="geometry" />
        </mxCell>
        <mxCell id="8dqYxIWpOryAG6sLCwDa-29" value="summary" style="ellipse;whiteSpace=wrap;html=1;aspect=fixed;" vertex="1" parent="1">
          <mxGeometry x="710" y="10" width="80" height="80" as="geometry" />
        </mxCell>
        <mxCell id="8dqYxIWpOryAG6sLCwDa-32" style="edgeStyle=orthogonalEdgeStyle;rounded=0;orthogonalLoop=1;jettySize=auto;html=1;entryX=1;entryY=0.25;entryDx=0;entryDy=0;endArrow=none;endFill=0;" edge="1" parent="1" source="8dqYxIWpOryAG6sLCwDa-31" target="8dqYxIWpOryAG6sLCwDa-21">
          <mxGeometry relative="1" as="geometry" />
        </mxCell>
        <mxCell id="8dqYxIWpOryAG6sLCwDa-31" value="File_name" style="ellipse;whiteSpace=wrap;html=1;aspect=fixed;" vertex="1" parent="1">
          <mxGeometry x="750" y="100" width="80" height="80" as="geometry" />
        </mxCell>
        <mxCell id="8dqYxIWpOryAG6sLCwDa-41" value="" style="edgeStyle=orthogonalEdgeStyle;rounded=0;orthogonalLoop=1;jettySize=auto;html=1;endArrow=none;endFill=0;" edge="1" parent="1" source="8dqYxIWpOryAG6sLCwDa-33" target="8dqYxIWpOryAG6sLCwDa-39">
          <mxGeometry relative="1" as="geometry" />
        </mxCell>
        <mxCell id="8dqYxIWpOryAG6sLCwDa-33" value="Has" style="rhombus;whiteSpace=wrap;html=1;" vertex="1" parent="1">
          <mxGeometry x="400" y="200" width="80" height="80" as="geometry" />
        </mxCell>
        <mxCell id="8dqYxIWpOryAG6sLCwDa-39" value="Author_to_contact&lt;div&gt;&lt;br&gt;&lt;/div&gt;" style="ellipse;whiteSpace=wrap;html=1;aspect=fixed;" vertex="1" parent="1">
          <mxGeometry x="240" y="220" width="120" height="120" as="geometry" />
        </mxCell>
        <mxCell id="8dqYxIWpOryAG6sLCwDa-47" style="edgeStyle=orthogonalEdgeStyle;rounded=0;orthogonalLoop=1;jettySize=auto;html=1;exitX=0.25;exitY=0;exitDx=0;exitDy=0;entryX=1.015;entryY=0.633;entryDx=0;entryDy=0;entryPerimeter=0;endArrow=none;endFill=0;" edge="1" parent="1" source="8dqYxIWpOryAG6sLCwDa-20" target="8dqYxIWpOryAG6sLCwDa-11">
          <mxGeometry relative="1" as="geometry" />
        </mxCell>
        <mxCell id="8dqYxIWpOryAG6sLCwDa-51" value="(1,M)" style="text;html=1;align=center;verticalAlign=middle;resizable=0;points=[];autosize=1;strokeColor=none;fillColor=none;" vertex="1" parent="1">
          <mxGeometry x="430" y="170" width="50" height="30" as="geometry" />
        </mxCell>
        <mxCell id="8dqYxIWpOryAG6sLCwDa-52" value="(0,N)" style="text;html=1;align=center;verticalAlign=middle;resizable=0;points=[];autosize=1;strokeColor=none;fillColor=none;" vertex="1" parent="1">
          <mxGeometry x="460" y="210" width="50" height="30" as="geometry" />
        </mxCell>
        <mxCell id="8dqYxIWpOryAG6sLCwDa-58" value="" style="edgeStyle=orthogonalEdgeStyle;rounded=0;orthogonalLoop=1;jettySize=auto;html=1;endArrow=none;endFill=0;" edge="1" parent="1" source="8dqYxIWpOryAG6sLCwDa-53" target="8dqYxIWpOryAG6sLCwDa-57">
          <mxGeometry relative="1" as="geometry" />
        </mxCell>
        <mxCell id="8dqYxIWpOryAG6sLCwDa-62" style="edgeStyle=orthogonalEdgeStyle;rounded=0;orthogonalLoop=1;jettySize=auto;html=1;exitX=0.25;exitY=1;exitDx=0;exitDy=0;entryX=0.5;entryY=0;entryDx=0;entryDy=0;endArrow=none;endFill=0;" edge="1" parent="1" source="8dqYxIWpOryAG6sLCwDa-53" target="8dqYxIWpOryAG6sLCwDa-59">
          <mxGeometry relative="1" as="geometry" />
        </mxCell>
        <mxCell id="8dqYxIWpOryAG6sLCwDa-65" value="" style="edgeStyle=orthogonalEdgeStyle;rounded=0;orthogonalLoop=1;jettySize=auto;html=1;endArrow=none;endFill=0;" edge="1" parent="1" source="8dqYxIWpOryAG6sLCwDa-53" target="8dqYxIWpOryAG6sLCwDa-64">
          <mxGeometry relative="1" as="geometry" />
        </mxCell>
        <mxCell id="8dqYxIWpOryAG6sLCwDa-69" style="edgeStyle=orthogonalEdgeStyle;rounded=0;orthogonalLoop=1;jettySize=auto;html=1;exitX=0.75;exitY=1;exitDx=0;exitDy=0;entryX=0;entryY=0;entryDx=0;entryDy=0;endArrow=none;endFill=0;" edge="1" parent="1" source="8dqYxIWpOryAG6sLCwDa-53" target="8dqYxIWpOryAG6sLCwDa-66">
          <mxGeometry relative="1" as="geometry" />
        </mxCell>
        <mxCell id="8dqYxIWpOryAG6sLCwDa-70" style="edgeStyle=orthogonalEdgeStyle;rounded=0;orthogonalLoop=1;jettySize=auto;html=1;exitX=1;exitY=0.75;exitDx=0;exitDy=0;endArrow=none;endFill=0;" edge="1" parent="1" source="8dqYxIWpOryAG6sLCwDa-53" target="8dqYxIWpOryAG6sLCwDa-71">
          <mxGeometry relative="1" as="geometry">
            <mxPoint x="500" y="490" as="targetPoint" />
          </mxGeometry>
        </mxCell>
        <mxCell id="8dqYxIWpOryAG6sLCwDa-72" style="edgeStyle=orthogonalEdgeStyle;rounded=0;orthogonalLoop=1;jettySize=auto;html=1;exitX=0;exitY=0.25;exitDx=0;exitDy=0;endArrow=none;endFill=0;" edge="1" parent="1" source="8dqYxIWpOryAG6sLCwDa-53" target="8dqYxIWpOryAG6sLCwDa-73">
          <mxGeometry relative="1" as="geometry">
            <mxPoint x="210" y="445" as="targetPoint" />
          </mxGeometry>
        </mxCell>
        <mxCell id="8dqYxIWpOryAG6sLCwDa-75" style="edgeStyle=orthogonalEdgeStyle;rounded=0;orthogonalLoop=1;jettySize=auto;html=1;exitX=0.75;exitY=0;exitDx=0;exitDy=0;entryX=0;entryY=0.5;entryDx=0;entryDy=0;endArrow=none;endFill=0;" edge="1" parent="1" source="8dqYxIWpOryAG6sLCwDa-53" target="8dqYxIWpOryAG6sLCwDa-74">
          <mxGeometry relative="1" as="geometry" />
        </mxCell>
        <mxCell id="8dqYxIWpOryAG6sLCwDa-53" value="Referees" style="rounded=0;whiteSpace=wrap;html=1;" vertex="1" parent="1">
          <mxGeometry x="280" y="425" width="100" height="60" as="geometry" />
        </mxCell>
        <mxCell id="8dqYxIWpOryAG6sLCwDa-57" value="&lt;u&gt;email_address&lt;/u&gt;" style="ellipse;whiteSpace=wrap;html=1;rounded=0;" vertex="1" parent="1">
          <mxGeometry x="170" y="455" width="80" height="80" as="geometry" />
        </mxCell>
        <mxCell id="8dqYxIWpOryAG6sLCwDa-59" value="First_name" style="ellipse;whiteSpace=wrap;html=1;rounded=0;" vertex="1" parent="1">
          <mxGeometry x="240" y="510" width="80" height="80" as="geometry" />
        </mxCell>
        <mxCell id="8dqYxIWpOryAG6sLCwDa-64" value="Last_name" style="ellipse;whiteSpace=wrap;html=1;aspect=fixed;" vertex="1" parent="1">
          <mxGeometry x="290" y="590" width="80" height="80" as="geometry" />
        </mxCell>
        <mxCell id="8dqYxIWpOryAG6sLCwDa-66" value="Phone_number" style="ellipse;whiteSpace=wrap;html=1;aspect=fixed;" vertex="1" parent="1">
          <mxGeometry x="345" y="510" width="80" height="80" as="geometry" />
        </mxCell>
        <mxCell id="8dqYxIWpOryAG6sLCwDa-71" value="Dependencies" style="ellipse;whiteSpace=wrap;html=1;aspect=fixed;" vertex="1" parent="1">
          <mxGeometry x="390" y="425" width="80" height="80" as="geometry" />
        </mxCell>
        <mxCell id="8dqYxIWpOryAG6sLCwDa-73" value="Research_era" style="ellipse;whiteSpace=wrap;html=1;aspect=fixed;" vertex="1" parent="1">
          <mxGeometry x="180" y="368" width="80" height="80" as="geometry" />
        </mxCell>
        <mxCell id="8dqYxIWpOryAG6sLCwDa-93" style="edgeStyle=orthogonalEdgeStyle;rounded=0;orthogonalLoop=1;jettySize=auto;html=1;exitX=1;exitY=1;exitDx=0;exitDy=0;endArrow=none;endFill=0;" edge="1" parent="1" source="8dqYxIWpOryAG6sLCwDa-74" target="8dqYxIWpOryAG6sLCwDa-94">
          <mxGeometry relative="1" as="geometry">
            <mxPoint x="610" y="630" as="targetPoint" />
            <Array as="points">
              <mxPoint x="620" y="400" />
              <mxPoint x="620" y="530" />
              <mxPoint x="630" y="530" />
            </Array>
          </mxGeometry>
        </mxCell>
        <mxCell id="8dqYxIWpOryAG6sLCwDa-96" value="" style="edgeStyle=orthogonalEdgeStyle;rounded=0;orthogonalLoop=1;jettySize=auto;html=1;endArrow=none;endFill=0;" edge="1" parent="1" source="8dqYxIWpOryAG6sLCwDa-74" target="8dqYxIWpOryAG6sLCwDa-95">
          <mxGeometry relative="1" as="geometry" />
        </mxCell>
        <mxCell id="8dqYxIWpOryAG6sLCwDa-74" value="Refreeeing" style="rhombus;whiteSpace=wrap;html=1;" vertex="1" parent="1">
          <mxGeometry x="510" y="340" width="80" height="80" as="geometry" />
        </mxCell>
        <mxCell id="8dqYxIWpOryAG6sLCwDa-79" value="(2,4)" style="text;html=1;align=center;verticalAlign=middle;resizable=0;points=[];autosize=1;strokeColor=none;fillColor=none;" vertex="1" parent="1">
          <mxGeometry x="455" y="338" width="50" height="30" as="geometry" />
        </mxCell>
        <mxCell id="8dqYxIWpOryAG6sLCwDa-81" value="(1,N)" style="text;html=1;align=center;verticalAlign=middle;resizable=0;points=[];autosize=1;strokeColor=none;fillColor=none;" vertex="1" parent="1">
          <mxGeometry x="590" y="338" width="50" height="30" as="geometry" />
        </mxCell>
        <mxCell id="8dqYxIWpOryAG6sLCwDa-83" value="" style="edgeStyle=orthogonalEdgeStyle;rounded=0;orthogonalLoop=1;jettySize=auto;html=1;endArrow=none;endFill=0;" edge="1" parent="1" source="8dqYxIWpOryAG6sLCwDa-82" target="8dqYxIWpOryAG6sLCwDa-74">
          <mxGeometry relative="1" as="geometry">
            <Array as="points">
              <mxPoint x="630" y="420" />
              <mxPoint x="630" y="390" />
            </Array>
          </mxGeometry>
        </mxCell>
        <mxCell id="8dqYxIWpOryAG6sLCwDa-88" value="" style="edgeStyle=orthogonalEdgeStyle;rounded=0;orthogonalLoop=1;jettySize=auto;html=1;endArrow=none;endFill=0;" edge="1" parent="1" source="8dqYxIWpOryAG6sLCwDa-82" target="8dqYxIWpOryAG6sLCwDa-87">
          <mxGeometry relative="1" as="geometry" />
        </mxCell>
        <mxCell id="8dqYxIWpOryAG6sLCwDa-90" value="" style="edgeStyle=orthogonalEdgeStyle;rounded=0;orthogonalLoop=1;jettySize=auto;html=1;endArrow=none;endFill=0;" edge="1" parent="1" source="8dqYxIWpOryAG6sLCwDa-82" target="8dqYxIWpOryAG6sLCwDa-89">
          <mxGeometry relative="1" as="geometry" />
        </mxCell>
        <mxCell id="8dqYxIWpOryAG6sLCwDa-91" style="edgeStyle=orthogonalEdgeStyle;rounded=0;orthogonalLoop=1;jettySize=auto;html=1;exitX=1;exitY=1;exitDx=0;exitDy=0;endArrow=none;endFill=0;" edge="1" parent="1" source="8dqYxIWpOryAG6sLCwDa-82" target="8dqYxIWpOryAG6sLCwDa-92">
          <mxGeometry relative="1" as="geometry">
            <mxPoint x="800" y="490" as="targetPoint" />
            <Array as="points">
              <mxPoint x="755" y="448" />
              <mxPoint x="755" y="470" />
              <mxPoint x="740" y="470" />
              <mxPoint x="740" y="500" />
            </Array>
          </mxGeometry>
        </mxCell>
        <mxCell id="8dqYxIWpOryAG6sLCwDa-82" value="" style="ellipse;whiteSpace=wrap;html=1;aspect=fixed;strokeColor=default;perimeterSpacing=0;gradientColor=none;" vertex="1" parent="1">
          <mxGeometry x="655" y="380" width="80" height="80" as="geometry" />
        </mxCell>
        <mxCell id="8dqYxIWpOryAG6sLCwDa-86" value="" style="edgeStyle=orthogonalEdgeStyle;rounded=0;orthogonalLoop=1;jettySize=auto;html=1;endArrow=none;endFill=0;" edge="1" parent="1" source="8dqYxIWpOryAG6sLCwDa-84" target="8dqYxIWpOryAG6sLCwDa-85">
          <mxGeometry relative="1" as="geometry" />
        </mxCell>
        <mxCell id="8dqYxIWpOryAG6sLCwDa-84" value="scores" style="ellipse;whiteSpace=wrap;html=1;aspect=fixed;" vertex="1" parent="1">
          <mxGeometry x="660" y="385" width="70" height="70" as="geometry" />
        </mxCell>
        <mxCell id="8dqYxIWpOryAG6sLCwDa-85" value="KHANAEI" style="ellipse;whiteSpace=wrap;html=1;" vertex="1" parent="1">
          <mxGeometry x="760" y="340" width="80" height="80" as="geometry" />
        </mxCell>
        <mxCell id="8dqYxIWpOryAG6sLCwDa-87" value="ERTEBAT&lt;div&gt;BA&lt;/div&gt;&lt;div&gt;CONFERENCE&lt;/div&gt;" style="ellipse;whiteSpace=wrap;html=1;aspect=fixed;strokeColor=default;perimeterSpacing=0;gradientColor=none;" vertex="1" parent="1">
          <mxGeometry x="650" y="500" width="100" height="100" as="geometry" />
        </mxCell>
        <mxCell id="8dqYxIWpOryAG6sLCwDa-89" value="FANNI" style="ellipse;whiteSpace=wrap;html=1;aspect=fixed;strokeColor=default;perimeterSpacing=0;gradientColor=none;" vertex="1" parent="1">
          <mxGeometry x="690" y="270" width="80" height="80" as="geometry" />
        </mxCell>
        <mxCell id="8dqYxIWpOryAG6sLCwDa-92" value="ESALAT" style="ellipse;whiteSpace=wrap;html=1;aspect=fixed;" vertex="1" parent="1">
          <mxGeometry x="760" y="455" width="80" height="80" as="geometry" />
        </mxCell>
        <mxCell id="8dqYxIWpOryAG6sLCwDa-94" value="Respond_to_comitte" style="ellipse;whiteSpace=wrap;html=1;aspect=fixed;" vertex="1" parent="1">
          <mxGeometry x="550" y="640" width="130" height="130" as="geometry" />
        </mxCell>
        <mxCell id="8dqYxIWpOryAG6sLCwDa-95" value="Respond_to_Author" style="ellipse;whiteSpace=wrap;html=1;" vertex="1" parent="1">
          <mxGeometry x="495" y="500" width="110" height="100" as="geometry" />
        </mxCell>
      </root>
    </mxGraphModel>
  </diagram>
</mxfile>
